<svg xmlns="http://www.w3.org/2000/svg" width="472" height="348" viewBox="0 0 472 348">
    <defs>
        <linearGradient id="ow9aths7va" x1="-1.844%" x2="100%" y1="6.539%" y2="97.015%">
            <stop offset="0%" stop-color="#5B7FA7"/>
            <stop offset="43.632%" stop-color="#78A9A9"/>
            <stop offset="100%" stop-color="#9CBF9A"/>
        </linearGradient>
        <linearGradient id="oj22cbv70b" x1="-1.844%" x2="100%" y1="35.433%" y2="65.759%">
            <stop offset="0%" stop-color="#5B7FA7"/>
            <stop offset="43.632%" stop-color="#78A9A9"/>
            <stop offset="100%" stop-color="#9CBF9A"/>
        </linearGradient>
    </defs>
    <g fill="none" fill-rule="evenodd">
        <g>
            <g>
                <g>
                    <g transform="translate(-834 -2802) translate(0 1618) translate(0 1117.385) translate(835 67.897)">
                        <path fill="#DAD9EA" fill-rule="nonzero" d="M243.83 102.598H140.706c-1.054-.001-1.909-.835-1.91-1.863V75.778c.001-1.029.856-1.862 1.91-1.863h103.122c1.055 0 1.909.834 1.91 1.863v24.957c-.001 1.028-.855 1.862-1.91 1.863zM140.706 74.66c-.633 0-1.146.5-1.146 1.118v24.957c0 .617.513 1.117 1.146 1.118h103.122c.633-.001 1.146-.501 1.146-1.118V75.778c0-.617-.513-1.117-1.146-1.118H140.707z"/>
                        <ellipse cx="157" cy="87.153" fill="url(#ow9aths7va)" fill-rule="nonzero" rx="7.964" ry="7.722"/>
                        <path fill="#F5F5FF" fill-rule="nonzero" d="M175.362 82.74c-.716 0-1.297.494-1.297 1.104 0 .609.58 1.103 1.297 1.103h61.117c.716 0 1.296-.494 1.296-1.103 0-.61-.58-1.104-1.296-1.104h-61.117zM174.255 90.463c-.733 0-1.327.494-1.327 1.103 0 .61.594 1.103 1.327 1.103h26.923c.474 0 .913-.21 1.151-.55.238-.343.238-.764 0-1.105-.238-.342-.677-.552-1.151-.551h-26.923z"/>
                        <path fill="#DAD9EA" fill-rule="nonzero" d="M199.444 191.958h-46.207c-1.063-.002-1.924-.843-1.925-1.88V143.09c0-1.038.862-1.879 1.925-1.88h46.207c1.063.001 1.924.842 1.926 1.88v46.988c-.002 1.037-.863 1.878-1.926 1.88zm-46.207-49.996c-.638 0-1.155.505-1.155 1.128v46.988c0 .622.517 1.127 1.155 1.128h46.207c.638-.001 1.155-.506 1.155-1.128V143.09c0-.623-.517-1.127-1.155-1.128h-46.207z"/>
                        <path fill="#F5F5FF" fill-rule="nonzero" d="M162.878 151.139c-.733 0-1.327.494-1.327 1.103 0 .61.594 1.103 1.327 1.103h26.925c.733 0 1.327-.494 1.327-1.103 0-.61-.594-1.103-1.327-1.103h-26.925zM162.88 158.861c-.474 0-.913.21-1.151.551-.238.342-.238.763 0 1.105.238.341.677.552 1.151.55h26.923c.733 0 1.327-.493 1.327-1.102 0-.61-.594-1.104-1.327-1.104H162.88z"/>
                        <path fill="url(#ow9aths7va)" fill-rule="nonzero" d="M176.34 182.029c-3.22 0-6.124-1.882-7.357-4.767-1.232-2.886-.551-6.208 1.727-8.416 2.277-2.209 5.702-2.87 8.678-1.674 2.976 1.195 4.916 4.011 4.916 7.134-.005 4.263-3.567 7.718-7.963 7.723z"/>
                        <path fill="#DAD9EA" fill-rule="nonzero" d="M274.969 37.509h46.207c1.063.001 1.924.842 1.925 1.88v46.987c0 1.038-.862 1.88-1.925 1.88H274.97c-1.063 0-1.924-.842-1.926-1.88V39.39c.002-1.038.863-1.879 1.926-1.88zm46.207 49.995c.638 0 1.155-.505 1.155-1.128V39.39c0-.623-.517-1.127-1.155-1.128H274.97c-.638 0-1.155.505-1.155 1.128v46.987c0 .623.517 1.128 1.155 1.128h46.207z"/>
                        <path fill="#F5F5FF" fill-rule="nonzero" d="M311.535 77.224c.733 0 1.327-.494 1.327-1.103 0-.61-.594-1.103-1.327-1.103H284.61c-.733 0-1.327.494-1.327 1.103 0 .61.594 1.103 1.327 1.103h26.925zM311.535 70.605c.733 0 1.327-.494 1.327-1.103 0-.61-.594-1.103-1.327-1.103H284.61c-.733 0-1.327.494-1.327 1.103 0 .61.594 1.103 1.327 1.103h26.925z"/>
                        <path fill="url(#ow9aths7va)" fill-rule="nonzero" d="M298.072 46.335c3.221 0 6.125 1.881 7.358 4.767 1.232 2.885.551 6.207-1.726 8.415-2.278 2.209-5.703 2.87-8.68 1.674-2.975-1.195-4.915-4.01-4.915-7.134.005-4.263 3.567-7.718 7.963-7.722z"/>
                        <path fill="#DAD9EA" fill-rule="nonzero" d="M139.749 133.644c8.16-6.189 17.694-10.409 27.83-12.319 10.215-1.906 20.75-1.376 30.713 1.545 5.008 1.46 9.82 3.502 14.332 6.082 4.598 2.632 8.753 5.872 12.751 9.303 4.05 3.475 7.966 7.106 12.194 10.377 12.07 9.448 27.053 14.61 42.505 14.642 1.276.002 2.552-.032 3.826-.103.691-.037.696-1.095 0-1.057-15.75.849-31.304-3.754-43.938-13.002-4.381-3.208-8.382-6.877-12.467-10.431-3.96-3.447-8.025-6.8-12.518-9.568-22.465-13.86-51.217-13.217-73.013 1.63-1.014.69-2.004 1.41-2.979 2.154-.547.417.222 1.16.764.747z"/>
                        <ellipse cx="138.797" cy="133.488" fill="#DAD9EA" fill-rule="nonzero" rx="5.688" ry="5.516"/>
                        <ellipse cx="348.13" cy="205.196" fill="#DAD9EA" fill-rule="nonzero" rx="5.688" ry="5.516"/>
                        <path fill="#DAD9EA" fill-rule="nonzero" d="M376.923 174.306h-91.716c-1.062-.001-1.923-.848-1.924-1.894v-46.96c0-1.045.862-1.892 1.924-1.893h91.716c1.063.001 1.924.848 1.925 1.894v46.96c-.001 1.045-.862 1.892-1.925 1.893zm-91.716-49.99c-.637.001-1.155.51-1.155 1.137v46.96c0 .627.518 1.135 1.155 1.136h91.716c.638-.001 1.155-.51 1.155-1.137v-46.96c0-.627-.517-1.135-1.155-1.136h-91.716z"/>
                        <ellipse cx="301.486" cy="141.21" fill="url(#ow9aths7va)" fill-rule="nonzero" rx="7.964" ry="7.722"/>
                        <path fill="#F5F5FF" fill-rule="nonzero" d="M318.73 135.694c-.47 0-.905.21-1.14.551-.236.342-.236.763 0 1.104.235.342.67.552 1.14.552h49.701c.727 0 1.315-.494 1.315-1.104 0-.609-.588-1.103-1.315-1.103h-49.7zM318.743 143.417c-.475-.001-.914.209-1.152.55-.237.342-.237.763 0 1.105.238.342.677.552 1.152.55h26.923c.733 0 1.327-.493 1.327-1.102 0-.61-.594-1.103-1.327-1.103h-26.923zM295.32 155.552c-.991 0-1.798.495-1.798 1.103s.807 1.103 1.799 1.103h72.626c.992 0 1.8-.495 1.8-1.103s-.808-1.103-1.8-1.103h-72.626zM295.32 163.274c-.991 0-1.798.495-1.798 1.103 0 .609.807 1.104 1.799 1.104h72.626c.992 0 1.8-.495 1.8-1.104 0-.608-.808-1.103-1.8-1.103h-72.626z"/>
                        <path fill="#DAD9EA" fill-rule="nonzero" d="M277.281 210.734c5.146-2.128 10.892-.272 15.743 1.689 2.498 1.01 4.97 2.088 7.555 2.886 2.175.67 4.402 1.173 6.661 1.505 4.533.662 9.143.689 13.684.08 4.564-.607 9.011-1.84 13.205-3.66 4.17-1.802 8.025-4.205 11.429-7.123.433-.373.858-.755 1.274-1.145.495-.462-.266-1.187-.76-.725-3.279 3.046-7.042 5.578-11.15 7.503-4.092 1.918-8.456 3.254-12.954 3.967-4.512.725-9.113.8-13.65.224-2.262-.291-4.497-.755-6.683-1.385-2.51-.778-4.973-1.69-7.376-2.73-4.896-2.005-10.336-3.968-15.716-2.586-.617.163-1.22.368-1.805.615-.633.262-.086 1.146.543.885z"/>
                        <path fill="url(#oj22cbv70b)" fill-rule="nonzero" d="M276.457 222.847h-43.232l10.174-17.677c.37-.645 1.057-1.042 1.799-1.042s1.428.397 1.8 1.042l4.345 7.551 7.39-12.84c.465-.807 1.324-1.304 2.253-1.304.93 0 1.788.497 2.253 1.304l13.218 22.966z"/>
                        <path fill="#DAD9EA" fill-rule="nonzero" d="M275.669 222.847h-46.207c-1.063-.001-1.925-.834-1.926-1.863v-24.957c.001-1.028.863-1.862 1.926-1.863h46.207c1.063.001 1.924.835 1.925 1.863v24.957c-.001 1.029-.862 1.862-1.925 1.863zm-46.207-27.938c-.638 0-1.155.501-1.156 1.118v24.957c.001.617.518 1.117 1.156 1.118h46.207c.638 0 1.154-.5 1.155-1.118v-24.957c0-.617-.517-1.117-1.155-1.118h-46.207z"/>
                        <path fill="#FFB8B8" fill-rule="nonzero" d="M367.03 201.451l-8.28 4.003c-2.956 1.428-5.808 1.184-6.9-1.795-.527-1.434-.369-3.016.431-4.33.8-1.315 2.164-2.232 3.733-2.51l7.87-1.399 33.706-10.643 20.418-13.78 7.485 11.35-23.593 12.116-34.87 6.988zM405.014 335.374L398.188 334.301 398.947 322.136 406.152 322.136zM465.312 323.638L459.55 325.445 455.072 315.054 460.682 312.207z"/>
                        <path fill="#2F2E41" fill-rule="nonzero" d="M461.899 314.33l-7.637 3.031-36.445-46.483-11.455 54.567-7.636-1.347c-4.898-47.044-8.893-95.028-3.992-117.723l28.29-1.179 12.842 39.746 6.248 26.947 19.785 42.44zM404.09 344.088c-1.142.224-2.334.109-3.4-.33l-3.714-1.53c-3.115-.146-5.235.422-6.97-1.648-.995-1.205-1.199-2.81-.53-4.19.663-1.387 2.092-2.338 3.737-2.488l5.102-2.94.267 2.204c2.332 1.208 5.1.686 8.033-.49l1.601 5.126c.418 1.336.21 2.77-.571 3.962-.782 1.192-2.069 2.033-3.554 2.324zM468.328 333.807c-1.008.558-2.183.805-3.354.705l-4.079-.346c-3.014.795-4.83 1.975-7.218.516-1.377-.853-2.144-2.326-2-3.848.135-1.524 1.155-2.863 2.666-3.5l3.803-4.345 1.042 2.028c2.65.455 5.096-.876 7.466-2.881l3.354 4.42c.874 1.153 1.19 2.587.87 3.961-.318 1.375-1.241 2.566-2.55 3.29z"/>
                        <ellipse cx="412.978" cy="144.52" fill="#FFB8B8" fill-rule="nonzero" rx="12.514" ry="12.135"/>
                        <path fill="#FFB8B8" fill-rule="nonzero" d="M428.906 169.893L411.754 166.544 409.565 153.483 421.607 151.139z"/>
                        <path fill="#5BA07E" fill-rule="nonzero" d="M423.875 206.3h-29.1l6.56-16.086c-.477-5.535 1.924-9.606 5.361-13.15l4.361-10.694c7.046-4.53 12.357-4.191 18.014 1.692 6.706 9.275 2.064 23.218-5.196 38.237z"/>
                        <path fill="#FFB8B8" fill-rule="nonzero" d="M411.075 240.024l-.861 8.913c-.308 3.18-2.083 5.377-5.392 4.666-1.594-.343-2.95-1.323-3.711-2.684-.763-1.36-.856-2.966-.256-4.397l3.01-7.176 8.652-33.237-1.442-24.08h14.418l-1.802 25.776-12.616 32.22z"/>
                        <path fill="#5BA07E" fill-rule="nonzero" d="M425.493 184.235h-15.928l1.117-10.599c.152-3.799 3.119-6.853 6.842-7.043 1.922-.098 3.803.593 5.224 1.918 1.42 1.325 2.262 3.175 2.338 5.137l.407 10.587z"/>
                        <ellipse cx="428.906" cy="126.868" fill="#2F2E41" fill-rule="nonzero" rx="4.551" ry="4.413"/>
                        <path fill="#2F2E41" fill-rule="nonzero" d="M423.855 125.52c.173-2.325 2.384-4.132 5.05-4.127-.104-.011-.207-.025-.313-.031-2.784-.155-5.185 1.69-5.364 4.123-.179 2.432 1.932 4.531 4.715 4.689.107.006.211.004.316.004-2.645-.293-4.574-2.333-4.404-4.658z"/>
                        <path fill="#2F2E41" fill-rule="nonzero" d="M424.342 128.137c-4.245-3.43-16.42.93-17.205 3.236-5.74.761-10.086 4.023-10.086 9.823 3.412 1.362 7.294 1.194 11.49 0 6.687 5.309 7.146 11.983 3.078 19.648l5.004.097 6.203-8.83.297 8.957 11.47-.224v-12.835c.037-4.268-.971-8.482-2.941-12.294-1.788-3.382-4.562-5.357-7.31-7.578z"/>
                        <ellipse cx="412.978" cy="147.829" fill="#FFB8B8" fill-rule="nonzero" rx="2.275" ry="3.31"/>
                        <path fill="#FFB9B9" fill-rule="nonzero" d="M128.558 151.297s1.417-22.086 8.773-17.067c7.356 5.018-3.212 19.115-3.212 19.115l-5.561-2.048zM101.983 219.538s15.574 17.493 6.86 18.695c-8.713 1.203-12.14-16.48-12.14-16.48l5.28-2.215z"/>
                        <path fill="#575A89" fill-rule="nonzero" d="M82.409 137.992c4.019 1.034 7.01 4.325 7.589 8.35l4.981 34.668 6.984 27.655s3.492 3.073 2.095 4.78c-1.396 1.707 1.746 8.877 1.746 8.877l-8.73 2.732s-1.047-7.17-2.793-7.512c-1.534-.3-18.71-45.163-22.85-56.032-.572-1.498-.895-2.35-.895-2.35s.699-22.876 11.873-21.168z"/>
                        <path fill="#FFB9B9" fill-rule="nonzero" d="M82.872 317.723l5.337 9.35c4.134 8.724.46 10.309-9.674 5.985l-2.31-11.041 6.647-4.294z"/>
                        <path fill="#2F2E41" fill-rule="nonzero" d="M86.06 330.027s2.59-4.085 3.527-3.401c.937.683 4.802 3.646 4.802 3.646l5.034 4.67s17.007 1.741 6.2 7.513c-10.807 5.771-16.779.986-16.779.986s-15.136.762-14.892-3.328c.244-4.09 5.126-10.56 5.126-10.56s6.152 3.994 6.982.474zM59.16 212.846l5.056 59.085s.168 35.32 5.562 42.157c5.393 6.836 5.562 10.254 5.562 10.254l11.124-5.534s-5.73-9.222-4.551-10.633c.727-.896 1.245-1.932 1.517-3.04l-3.034-36.46 5.73-63.479-26.967 7.65z"/>
                        <path fill="#FFB9B9" fill-rule="nonzero" d="M72.812 317.911L68.286 329.858 58.022 325.572 63.437 316.62z"/>
                        <path fill="#2F2E41" fill-rule="nonzero" d="M64.899 325.427s3.969-2.434 4.465-1.46c.496.973 2.48 5.112 2.48 5.112l2.233 6.087s13.645 8.521 1.985 9.008c-11.66.487-14.637-6.087-14.637-6.087s-13.148-5.6-11.163-9.008c1.985-3.408 8.93-6.943 8.93-6.943s3.474 5.97 5.707 3.291zM101.97 213.442l2.697 54.347s-24.608 49.14-27.305 50.441c-1.623.81-2.839 2.218-3.37 3.906l-14.833-3.58 6.742-10.414 14.832-34.82s2.36-.977 3.034-4.231c.674-3.255 2.023-3.255-1.348-3.905-3.371-.651-3.371-3.906-3.371-3.906l-11.124-49.465 34.046 1.627z"/>
                        <ellipse cx="90.008" cy="115.346" fill="#FFB9B9" fill-rule="nonzero" rx="13.022" ry="13.419" transform="rotate(-80.783 90.008 115.346)"/>
                        <path fill="#FFB9B9" fill-rule="nonzero" d="M77.42 115.836s-.966 15.92-2.254 17.48c-1.287 1.562 13.519 1.25 13.519 1.25s-.966-13.423 0-14.672c.965-1.248-11.266-4.058-11.266-4.058z"/>
                        <path fill="#5BA07E" fill-rule="nonzero" d="M103.529 216.228s-38.377-3.22-45.507 0c0 0 2.625-9.233 1.946-10.198-.493-.705.868-27.005.44-42.176-.241-8.56-2.325-16.92 3.731-23.277 2.061-2.159 4.36-3.97 6.787-4.856 0 0-.679-6.118 2.717-6.44 0 0 12.908-1.29 17.66 2.577 1.52 1.228 2.475 4.97 2.577 8.193-2.352 10.966-1.52 23.135.638 35.758.132.802.278 1.608.423 2.414 2.29 12.52 5.752 25.427 8.588 38.005z"/>
                        <path fill="#2F2E41" fill-rule="nonzero" d="M82.72 119.098c1.136-.067 2.245.314 3.373.462 4.034.532 8.231-2.372 9.122-6.311.071-.525.229-1.034.466-1.508.621-1.005 2.035-1.197 3.201-.966 1.166.231 2.27.772 3.458.834 1.833.096 3.593-1.024 4.57-2.565.923-1.59 1.315-3.43 1.121-5.254l-.878.915c-.358-.75-.495-1.583-.398-2.406-.947-.25-1.957.006-2.667.676-.774.082-.19-1.425-.765-1.946-.28-.17-.614-.233-.937-.174-1.649.016-2.982-1.235-4.28-2.241-2.252-1.74-4.883-2.931-7.684-3.476-1.861-.36-3.84-.418-5.606.27-1.424.634-2.71 1.539-3.785 2.663-2.764 2.636-5.211 5.733-6.36 9.36-.935 2.972-.962 6.151-.077 9.138.463 1.55 1.86 6.862 3.904 6.986 2.568.155 1.026-4.267 4.223-4.457z"/>
                        <path fill="#5BA07E" fill-rule="nonzero" d="M87.972 140.107l4.85.494s4.76 8.776 4.415 10.607c-.346 1.83-1.099.72 1.044 3.648 2.143 2.93 8.223 10.5 8.976 11.612.753 1.111 21.28-13.771 20.004-18.23 0 0 6.483 4.42 9.26 5.008 0 0-21.154 26.363-24.102 29.737-2.948 3.374-5.32 2.68-9.372.68-4.051-2-24.547-21.953-24.547-21.953l9.472-21.603z"/>
                        <path fill="#000" fill-rule="nonzero" d="M95.565 178.72L78.5 162.413l4.319-1.346 12.32 15.197c.133.815.28 1.635.426 2.454z" opacity=".1"/>
                    </g>
                </g>
            </g>
        </g>
    </g>
</svg>
